<svg xmlns="http://www.w3.org/2000/svg" width="18" height="16" viewBox="0 0 18 18"><path fill="#fff" d="M17.086 8.009c.256.257.385.583.385.98 0 .374-.129.688-.385.945-.258.257-.584.384-.98.384H10.4v5.74c0 .374-.129.695-.385.963-.257.269-.583.402-.98.402-.373 0-.694-.134-.963-.402a1.31 1.31 0 0 1-.402-.963v-5.74H1.93c-.374 0-.688-.127-.945-.384a1.288 1.288 0 0 1-.384-.945c0-.396.128-.723.385-.98.256-.256.571-.385.945-.385h5.74v-5.74a1.3 1.3 0 0 1 .402-.98 1.35 1.35 0 0 1 .963-.385c.396 0 .723.128.98.385.256.257.385.583.385.98v5.74h5.705c.396 0 .722.128.98.385z"/></svg>